# xmcd CD database file
#
# Track frame offsets:
#	150
#	17378
#	35230
#	50196
#	67974
#	79847
#	97785
#	110425
#	127945
#	148120
#	165230
#	181513
#	197325
#	209550
#
# Disc length: 2997 seconds
#
# Revision: 2
# Processed by: cddbd v1.4PL0 Copyright (c) Steve Scherf et al.
# Submitted via: CDex 1.40Beta9
#
DISCID=b20bb30e
DTITLE=Gian e Giovani - Dois Corações
DYEAR=2000
DGENRE=Sertanejo
TTITLE0=Dois Corações
TTITLE1=A Verdade Veio A Tona
TTITLE2=Gol Do Coracão
TTITLE3=Pele De Maçã
TTITLE4=Hey! Hey! Trem Bão
TTITLE5=Cheiro De Sedução
TTITLE6=Cospe Grosso
TTITLE7=Quem Ama Perdoa
TTITLE8=Padroeira Do Rodeio
TTITLE9=Por Acaso
TTITLE10=Sem Você Não Sou Nada
TTITLE11=Anoiteceu
TTITLE12=A Morena Proibida
TTITLE13=Que Seja Eterno Como O Criador
EXTD=YEAR: 2000
EXTT0=
EXTT1=
EXTT2=
EXTT3=
EXTT4=
EXTT5=
EXTT6=
EXTT7=
EXTT8=
EXTT9=
EXTT10=
EXTT11=
EXTT12=
EXTT13=
PLAYORDER=
